<?xml version="1.0" encoding="UTF-8"?>
<!DOCTYPE svg PUBLIC "-//W3C//DTD SVG 1.1//EN" "http://www.w3.org/Graphics/SVG/1.1/DTD/svg11.dtd">
<!-- Creator: CorelDRAW -->
<svg xmlns="http://www.w3.org/2000/svg" xml:space="preserve" width="2048px" height="2048px" style="shape-rendering:geometricPrecision; text-rendering:geometricPrecision; image-rendering:optimizeQuality; fill-rule:evenodd; clip-rule:evenodd"
viewBox="0 0 2048 2048"
 xmlns:xlink="http://www.w3.org/1999/xlink">
 <defs>
  <style type="text/css">
   <![CDATA[
    .fil1 {fill:none}
  .fil0 {fill:#7f6644; fill-rule:nonzero}
   ]]>
  </style>
 </defs>
 <g id="Layer_x0020_1">
  <metadata id="CorelCorpID_0Corel-Layer"/>
  <path class="fil0" d="M1551.39 561.432c12.4949,12.4949 32.7555,12.4949 45.2504,0 12.4949,-12.4949 12.4949,-32.7555 0,-45.2504l-172.173 -172.172c-12.4949,-12.4949 -32.7555,-12.4949 -45.2504,0 -12.4949,12.4949 -12.4949,32.7555 0,45.2504l172.173 172.172z"/>
  <path class="fil0" d="M1455.11 657.712c12.4949,12.4949 32.7555,12.4949 45.2504,0 12.4949,-12.4949 12.4949,-32.7555 0,-45.2504l-172.173 -172.172c-12.4949,-12.4949 -32.7555,-12.4949 -45.2504,0 -12.4949,12.4949 -12.4949,32.7555 0,45.2504l172.173 172.172z"/>
  <path class="fil0" d="M1358.83 753.992c12.4949,12.4949 32.7555,12.4949 45.2504,0 12.4949,-12.4949 12.4949,-32.7555 0,-45.2504l-172.173 -172.172c-12.4949,-12.4949 -32.7555,-12.4949 -45.2504,0 -12.4949,12.4949 -12.4949,32.7555 0,45.2504l172.173 172.172z"/>
  <path class="fil0" d="M1262.55 850.272c12.4949,12.4949 32.7555,12.4949 45.2504,0 12.4949,-12.4949 12.4949,-32.7555 0,-45.2504l-172.172 -172.172c-12.4949,-12.4949 -32.7555,-12.4949 -45.2504,0 -12.4949,12.4949 -12.4949,32.7555 0,45.2504l172.172 172.172z"/>
  <path class="fil0" d="M1327.82 319.624c17.465,-2.55355 29.5536,-18.7854 27,-36.2504 -2.55355,-17.465 -18.7854,-29.5536 -36.2504,-27 -141.225,20.7969 -169.257,103.487 -195.546,181.036 -16.9843,50.1036 -32.9977,97.3406 -94.0253,107.912 -17.3965,2.96811 -29.0929,19.4788 -26.1248,36.8752 2.96811,17.3965 19.4788,29.0929 36.8752,26.1248 98.5761,-17.0752 120.51,-81.7796 143.776,-150.412 20.2099,-59.6162 41.7603,-123.186 144.295,-138.285z"/>
  <path class="fil0" d="M1340.31 885.954c0.206693,-0.157087 0.411024,-0.317717 0.614174,-0.48189 0.184252,-0.148819 0.791339,-0.73819 1.84488,-1.79173l287.072 -287.071c4.65827,-4.65945 6.98977,-10.7717 6.98977,-16.8862 0,-6.11339 -2.3315,-12.2268 -6.98977,-16.8851l-0.0011811 -0.0011811c-4.65827,-4.65827 -10.7717,-6.98859 -16.8851,-6.98859 -6.11339,0 -12.2256,2.33032 -16.8839,6.98859l-0.0011811 0.0011811 -284.967 284.966 0.00236221 0.00236221c-1.5248,1.5248 -3.16654,2.86181 -4.89331,4.01457l-183.907 138.671 -0.884646 -1.17284 -0.00944883 0.0153543 0.910631 1.20827c-1.01811,0.767717 -2.06929,1.46339 -3.14292,2.09173l-0.38504 0.298819c-1.13386,1.35 -2.39528,2.62323 -3.78071,3.80079l-696.88 690.722c-4.68307,4.64646 -7.04646,10.7091 -7.08071,16.7516l0 0.0437008 0.124016 0c-0.00236221,0.594095 -0.022441,1.18347 -0.056693,1.77047 0.408662,5.48386 2.68465,10.8437 6.82914,15.0213 4.64646,4.68307 10.7102,7.04646 16.7528,7.08071l0.0437008 0 0 -0.124016c0.594095,0.00236221 1.18347,0.022441 1.77047,0.056693 5.48504,-0.408662 10.8425,-2.68465 15.0201,-6.82914l695.481 -689.334 22.5 22.6252 -22.5272 -22.728c1.49291,-1.47992 3.09567,-2.77914 4.77992,-3.90473l185.308 -139.726 19.2496 25.5 -19.2662 -25.5508c1.05236,-0.793701 2.1378,-1.51063 3.2504,-2.15551zm40.8638 49.0181c-1.56378,1.26614 -3.16536,2.47795 -4.8,3.62835 -0.256299,0.206693 -0.516142,0.411024 -0.78189,0.61063l-0.0307087 -0.0401575 -185.334 139.745 -693.693 687.563c-16.2992,16.1717 -37.3335,24.6142 -58.5579,25.3453 -1.14567,0.119291 -2.30906,0.180709 -3.4878,0.175984l0 -0.124016c-22.4268,-0.0885827 -44.7992,-8.70827 -61.7918,-25.8319 -16.1717,-16.2992 -24.6142,-37.3335 -25.3453,-58.5591 -0.119291,-1.14567 -0.180709,-2.30906 -0.175984,-3.4878l0.124016 0c0.0885827,-22.4268 8.70827,-44.7981 25.8319,-61.7906l695.541 -689.395c0.889371,-1.16575 1.86732,-2.28662 2.93858,-3.34843l0.0637796 0.0649607c2.21103,-2.18977 4.46575,-4.20709 6.75001,-6.05079 1.46457,-1.18228 3.0189,-2.34567 4.65945,-3.48898 0.231496,-0.185433 0.466536,-0.367323 0.703938,-0.546851l0.0307087 0.0401575 0.00354331 -0.00354331 183.369 -138.263 283.628 -283.627 0.0011811 -0.0011811c17.1591,-17.1591 39.6496,-25.7398 62.1343,-25.7398 22.4847,0 44.9764,8.58072 62.1355,25.7398l0.0011811 0.0011811c17.1591,17.1591 25.741,39.6508 25.741,62.1355 0,22.4858 -8.5819,44.9752 -25.741,62.1367l-287.072 287.071c-1.73622,1.73622 -4.03465,3.75945 -6.84567,6.04134zm-970.123 769.236l0 0.0413386m23.6492 23.8748l0.0413386 0"/>
 </g>
 <rect class="fil1" width="2048" height="2048"/>
</svg>
